<?xml version="1.0" encoding="iso-8859-1"?>
<!-- Uploaded to: SVG Repo, www.svgrepo.com, Generator: SVG Repo Mixer Tools -->
<!DOCTYPE svg PUBLIC "-//W3C//DTD SVG 1.1//EN" "http://www.w3.org/Graphics/SVG/1.1/DTD/svg11.dtd">
<svg fill="#000000" height="800px" width="800px" version="1.1" id="Capa_1" xmlns="http://www.w3.org/2000/svg" xmlns:xlink="http://www.w3.org/1999/xlink" 
	 viewBox="0 0 295.5 295.5" xml:space="preserve">
<g>
	<path d="M40.5,113.832c5.514,0,10-4.486,10-10s-4.486-10-10-10s-10,4.486-10,10S34.986,113.832,40.5,113.832z"/>
	<path d="M40.5,86c5.514,0,10-4.486,10-10s-4.486-10-10-10s-10,4.486-10,10S34.986,86,40.5,86z"/>
	<path d="M255.5,191.5h-215c-2.762,0-5,2.238-5,5s2.238,5,5,5h215c2.762,0,5-2.238,5-5S258.262,191.5,255.5,191.5z"/>
	<path d="M49,132H32c-4.143,0-7.5,3.357-7.5,7.5s3.357,7.5,7.5,7.5h17c4.143,0,7.5-3.357,7.5-7.5S53.143,132,49,132z"/>
	<path d="M288,165h-12.486L246,120.729V90c0-4.143-3.357-7.5-7.5-7.5h-55.633v-9c0-4.143-3.357-7.5-7.5-7.5h-16.077
		c-6.004-6.16-22.347-20.598-44.065-21.098C103.312,44.647,91.85,48.563,81,56.557V40.5c0-4.143-3.357-7.5-7.5-7.5h-66
		C3.357,33,0,36.357,0,40.5V222c0,4.143,3.357,7.5,7.5,7.5h9v18H13c-4.143,0-7.5,3.357-7.5,7.5s3.357,7.5,7.5,7.5h22
		c4.143,0,7.5-3.357,7.5-7.5s-3.357-7.5-7.5-7.5h-3.5v-18H264v18h-3.5c-4.143,0-7.5,3.357-7.5,7.5s3.357,7.5,7.5,7.5h22
		c4.143,0,7.5-3.357,7.5-7.5s-3.357-7.5-7.5-7.5H279v-18h9c4.143,0,7.5-3.357,7.5-7.5v-49.5C295.5,168.357,292.143,165,288,165z
		 M123.133,115.5H81v-18h42.133V115.5z M81,130.5h42.133v8.77c0,2.508,1.253,4.85,3.34,6.24l22.367,14.912
		c1.26,0.84,2.71,1.26,4.16,1.26s2.9-0.42,4.16-1.26l22.367-14.912c2.087-1.391,3.34-3.732,3.34-6.24v-8.77h51.619l23,34.5H81V130.5
		z M231,97.5v18h-48.133v-18H231z M167.867,135.256L153,145.168l-14.867-9.912V81h29.734V135.256z M114.781,59.896
		c7.673,0.155,14.617,2.835,20.288,6.104h-4.436c-4.143,0-7.5,3.357-7.5,7.5v9H81v-6.028
		C91.878,65.238,103.229,59.629,114.781,59.896z M15,48h51v117H15V48z M280.5,214.5H15V180h265.5V214.5z"/>
</g>
</svg>